<?xml version="1.0" encoding="UTF-8" standalone="no"?>
<svg
   xmlns:dc="http://purl.org/dc/elements/1.1/"
   xmlns:cc="http://creativecommons.org/ns#"
   xmlns:rdf="http://www.w3.org/1999/02/22-rdf-syntax-ns#"
   xmlns:svg="http://www.w3.org/2000/svg"
   xmlns="http://www.w3.org/2000/svg"
   viewBox="0 0 1470.7867 445.58667"
   height="445.58667"
   width="1470.7867"
   xml:space="preserve"
   id="svg2"
   version="1.1"><metadata
     id="metadata8"><rdf:RDF><cc:Work
         rdf:about=""><dc:format>image/svg+xml</dc:format><dc:type
           rdf:resource="http://purl.org/dc/dcmitype/StillImage" /></cc:Work></rdf:RDF></metadata><defs
     id="defs6"><clipPath
       id="clipPath20"
       clipPathUnits="userSpaceOnUse"><path
         id="path18"
         d="M 0,3341.87 V 0 h 11030.9 v 3341.87 z" /></clipPath></defs><g
     transform="matrix(1.3333333,0,0,-1.3333333,0,445.58667)"
     id="g10"><g
       transform="scale(0.1)"
       id="g12"><g
         id="g14"><g
           clip-path="url(#clipPath20)"
           id="g16"><path
             id="path22"
             style="fill:#ffffff;fill-opacity:1;fill-rule:nonzero;stroke:none"
             d="M 0.0078125,1.21875 C 0,1114.39 0,2227.58 0,3340.75 c 2789.46,0.07 5578.92,0.14 8368.37,0.2 866.5,0.01 1733.03,-0.32 2599.53,0.92 45.3,0.07 63.1,-7.46 63,-58.7 -1.6,-1074.79 -1.5,-2149.58 -0.3,-3224.3692 C 11030.7,13.6602 11019.7,-0.0078125 10972.9,0 7315.25,1.17969 3657.62,1.14844 0.0078125,1.21875" /><path
             id="path24"
             style="fill:#7B68EE;fill-opacity:1;fill-rule:nonzero;stroke:none"
             d="m 8025.58,3008.14 c 868.14,0 1736.3,-0.55 2604.42,1.34 52.5,0.12 62,-15.04 61.9,-63.81 -1.5,-849.82 -1.6,-1699.65 0.1,-2549.471 0.1,-49.789 -14.4,-59.23 -61.1,-59.199 -1737.95,1.211 -3475.92,1.262 -5213.89,-0.199 -49.82,-0.039 -59.01,14.168 -58.93,60.898 1.47,849.831 1.59,1699.651 -0.21,2549.471 m 5410.93,208.34 c -1893.28,0.16 -3786.56,0.17 -5679.84,0.19 -1608.28,0.01 -3216.58,0 -4824.858,0 -74.18,0 -74.196,-0.02 -74.196,-76.35 -0.004,-941.64 -0.051,-1883.28 0.086,-2824.92 0.008,-80.098 -9.699,-74.731 75.699,-74.731 1749.929,-0.047 3499.859,-0.039 5249.789,-0.008 1753.29,0.008 3506.58,0.008 5259.92,0.02 65.6,0 65.6,0.059 65.6,63.777 0.1,946.642 0.1,1893.292 -0.1,2839.942 0,80.64 9,72.07 -72.1,72.08" /><path
             id="path26"
             style="fill:#2e2d2d;fill-opacity:1;fill-rule:nonzero;stroke:none"
             d="m 6107.4,1667.17 c -0.51,-108.37 13.76,-205.1 53.15,-296.78 102.2,-237.87 387.17,-304.93 585.96,-138.35 10.2,8.54 21.74,16.32 29.55,26.78 19.77,26.52 33.92,20.45 53.39,-2.08 48.98,-56.67 99.3,-112.32 151.44,-166.08 21.69,-22.36 18.83,-35.32 -1.55,-56.49 -124.87,-129.709 -276.52,-202.678 -456.07,-208.209 -262.22,-8.07 -484.48,77.898 -642.72,296.459 -94.56,130.61 -136.27,280.99 -146.2,439.68 -18.07,288.5 42.77,552.22 267.83,752.97 272.41,242.98 674.32,243.24 940.48,8.5 33.14,-29.24 34.29,-46.16 3.46,-77.09 -50.46,-50.63 -96.49,-105.75 -143.44,-159.8 -16.21,-18.65 -27.31,-27.54 -50.69,-5.69 -198.64,185.7 -511.85,113.79 -611.44,-191.6 -24.47,-75.02 -35.2,-152.35 -33.15,-222.22" /><path
             id="path28"
             style="fill:#2e2d2d;fill-opacity:1;fill-rule:nonzero;stroke:none"
             d="m 9056.86,1972.83 c 8.59,-85.13 16.58,-170.33 25.88,-255.39 30.31,-277.54 10.61,-556.03 16.78,-834.01 0.58,-25.91 -11.29,-30.051 -33.09,-29.879 -89.99,0.719 -180,1.25 -269.97,-0.25 -29.2,-0.492 -36.24,10.437 -36.21,37.98 0.67,513.289 0.76,1026.589 -0.17,1539.879 -0.05,31 8.78,39.73 39.44,39.21 104.96,-1.78 209.98,-1.34 314.96,-0.18 23.41,0.26 35.2,-6.74 43.42,-29.39 155.64,-428.48 312.1,-856.65 468.22,-1284.95 9.25,-25.36 -23.29,-147.06 -45.06,-156.459 -31.13,-13.442 -66.14,-0.68 -98.62,-6.161 -45.08,-7.609 -54.88,21.64 -67.64,54.16 -115.45,294.21 -236.77,586.19 -334.82,886.97 -4.45,13.65 -9.41,27.13 -14.14,40.68 -3,-0.74 -5.99,-1.47 -8.98,-2.21" /><path
             id="path30"
             style="fill:#7B68EE;fill-opacity:1;fill-rule:nonzero;stroke:none"
             d="m 9661.68,1193.62 c -40.3,111.71 -77.09,213.08 -113.31,314.64 -5.93,16.63 0.52,32.93 6.13,48.64 104.83,293.01 210.08,585.88 314,879.22 9.51,26.84 22.89,34.75 50.52,34.31 103.28,-1.65 206.68,-2.05 309.98,0.13 34.3,0.73 40.9,-11.63 40.8,-43.03 -0.9,-509.93 -0.9,-1019.87 0.1,-1529.8 0.1,-34.57 -8.9,-46.07 -44.3,-45.082 -84.9,2.403 -170,2.422 -254.93,0.012 -36.91,-1.039 -48.5,9.738 -48.43,47.692 0.66,351.368 -7.66,703.038 45.55,1052.118 1.45,9.48 0.19,19.37 -3.32,30.2 -91.65,-261.94 -189.71,-521.18 -302.79,-789.05" /><path
             id="path32"
             style="fill:#2e2d2d;fill-opacity:1;fill-rule:nonzero;stroke:none"
             d="m 7962.34,1758.33 c -81,-30.96 -148.51,-31.97 -224.96,-30.31 -41.11,0.88 -75.9,-0.65 -120.04,-0.65 l -8.19,227.37 c 0.02,63.15 -0.04,126.29 0.06,189.44 0.02,16.4 -3.12,34.27 23.35,33.62 99.38,-2.46 199.59,8.4 297.69,-15.41 101.12,-24.55 147.9,-79.36 156.73,-179.83 8.72,-99.09 -37.17,-190.8 -124.64,-224.23 z m 532.77,-850.818 c -103.6,184.238 -207.43,368.348 -311.05,552.578 -10.91,19.42 -28.79,36.24 6.65,54.86 157.37,82.67 235.75,216.54 254.99,391.81 27.37,249.27 -89.35,445.37 -316.72,519.84 -55.43,18.15 -112.5,29.98 -170.86,34.54 -227.9,17.79 -456.2,4.06 -684.25,8.99 -26.97,0.59 -33.6,-9.17 -33.57,-34.61 0.59,-514.81 0.63,-1029.61 -0.06,-1544.43 -0.03,-27.738 7.44,-38.192 36.37,-37.781 98.28,1.402 196.61,1.761 294.88,-0.18 31.94,-0.629 38.57,10.953 38.26,40.34 -1.4,131.611 -0.93,263.241 -0.44,394.861 0.17,46.36 -15.29,107.87 8.17,135.11 27.15,31.53 90.8,4.48 137.86,11.03 40.72,5.65 58.08,-14.05 75.38,-47.28 86.81,-166.78 176.16,-332.23 264.65,-498.139 8.37,-15.699 12.68,-35.192 36.75,-35.16 127.66,0.211 255.32,0.101 390.31,0.101 -11.26,22.149 -18.7,38.18 -27.32,53.52" /><path
             id="path34"
             style="fill:#ffffff;fill-opacity:1;fill-rule:nonzero;stroke:none"
             d="m 2829.2,2049.88 c -63.3,-0.05 -126.61,-0.7 -189.89,0.1 -96.42,1.22 -146.75,51.8 -148.32,149.22 -0.95,58.28 -1.57,116.64 0.43,174.87 0.92,26.7 -9.37,37.89 -33.7,45.75 -300.98,97.28 -601.67,98.54 -902.89,0.94 -26.24,-8.5 -37.47,-20 -36.32,-48.91 2.32,-58.2 1.61,-116.59 0.44,-174.86 -1.83,-91.4 -55.94,-146.05 -146.97,-146.86 -128.25,-1.12 -256.53,-1.07 -384.781,-0.03 -94.691,0.77 -143.359,49.48 -147.465,144.91 -7.886,183.5 58.411,330.11 211.226,437.25 191.69,134.41 407.29,202.94 636.06,232.2 312.67,39.98 624.62,34.81 931.48,-44.62 188.61,-48.82 350.23,-143.27 465.47,-306.25 73.92,-104.54 96.93,-221.47 83.76,-346.36 -7.32,-69.41 -60.72,-115.12 -133.66,-116.94 -68.25,-1.7 -136.58,-0.36 -204.87,-0.41" /><path
             id="path36"
             style="fill:#ffffff;fill-opacity:1;fill-rule:nonzero;stroke:none"
             d="m 4588.08,1598.93 c 18.85,22.91 44.66,56.81 78.24,35.04 30.45,-19.73 17.07,-58.21 8.32,-87.89 -19.01,-64.51 -55.92,-120.16 -93.11,-175.43 -51.86,-77.09 -106.77,-151.67 -178.67,-215.41 27.58,161.97 79.06,314.66 185.22,443.69 z m -1438.39,-13.87 c 20.63,27.73 49.32,70.36 87.06,50.08 40.96,-21.99 21.01,-69.68 6.85,-103.82 -59.88,-144.3 -156.09,-263.91 -265.15,-375.67 23.3,157.11 76.5,302.09 171.24,429.41 z m 750.17,276.12 c 52.24,233.82 104.71,467.65 178.66,695.89 10.22,31.55 23.62,62.14 36.76,92.65 5.28,12.28 14.08,24.69 29.67,22.67 15.48,-2 19.88,-16.57 23.44,-29.29 18.54,-66.3 7.99,-132.36 -4.33,-197.85 -41.42,-220.3 -120.8,-428.78 -201.22,-636.8 -36.46,-94.32 -75.43,-187.68 -113.25,-281.48 0.97,113.8 25.67,224.08 50.27,334.21 z m 533.81,-751.92 c 116.42,93.35 215.99,202.95 297.05,328.49 34.57,53.54 63.03,110.4 59.24,177.07 -4.19,73.62 -51.39,106.94 -122.31,88.31 -51.73,-13.6 -94.5,-42.45 -130.39,-80.13 -131.21,-137.77 -225.71,-298.06 -266.65,-483.91 -14.01,-63.56 -42.63,-101.74 -94.17,-133.52 -87.04,-53.679 -178.31,-96.781 -277.51,-121.929 -57.26,-14.52 -91.95,2 -96.79,53.179 -16.25,172.03 -12.73,342.62 59.04,504.62 34.39,77.64 71.67,154.05 104.36,232.38 102.01,244.43 200.28,490.32 248.28,752.51 14.4,78.69 25.79,158.54 -0.93,237.1 -23.19,68.18 -68.97,79.48 -120.82,30.02 -47.96,-45.75 -77.21,-104.38 -102.92,-164.07 -136.3,-316.41 -225.58,-646.74 -290.34,-984.39 -14.69,-76.64 -10.71,-157.28 -40.8,-230.2 -76.8,-186.13 -181.39,-355.509 -313.14,-508.392 -119.43,-138.566 -263.08,-239.699 -439.12,-291.539 -222.82,-65.597 -443.91,-70.898 -656.35,36.653 -101.63,51.449 -175.71,131.918 -206.71,244.769 -15.48,56.328 -8.22,63.438 49.31,63.481 103.33,0.07 364.54,-8.102 467.63,-5.18 36.37,1.02 59.71,-6.602 158.16,58.457 29.9,19.762 80.74,60.883 109.16,88.781 8.52,-27.57 14.67,-53.14 24.29,-77.32 16.8,-42.199 43.81,-77.168 91.54,-83.34 89.32,-11.531 165.59,27.031 239.59,70.16 9.46,5.5 19.41,15.301 12.4,28.922 -6.56,12.75 -19.94,12.188 -30.99,9.93 -26.02,-5.313 -51.46,-13.453 -77.46,-18.981 -45.89,-9.769 -77.35,8.688 -96.27,51.028 -26.44,59.191 -22.37,91.621 16.25,124.081 117.99,99.21 222.57,210.48 304.8,341.53 33.26,53.01 57.56,109.14 51.66,174.01 -6.25,68.51 -51.77,100.63 -118.09,82.38 -68.62,-18.89 -121.78,-61.81 -165.74,-115.16 -121.32,-147.27 -213.4,-309.56 -246.77,-500.39 -2.61,-14.91 -5.59,-26.23 -17.96,-38.72 -85.38,-86.169 -153.91,-146.61 -253.46,-163.821 -34.98,-6.039 -61.56,18.121 -63.64,64.902 L 1530.32,901.18 c -2.01,-33.078 9.05,-42.7 41.83,-42.09 l 349.32,-0.75 c 74.12,-1.77 67.25,-58.508 74.97,-85.11 36.31,-125.07 123.97,-207.281 233.88,-266.878 176.51,-95.711 365.82,-103.653 559.01,-70.543 294.29,50.441 515.37,213.371 687.28,450.98 67,92.633 132.09,186.401 184.25,289.571 7.35,-72.29 13.61,-141.75 29.93,-209.809 28.36,-118.25 76.43,-151.301 196.51,-135.43 16.37,2.168 32.36,7.629 48.33,12.258 101.93,29.562 193.18,81.351 280.79,139.293 32.24,21.328 40.16,16.199 49.28,-19.992 28.01,-111.188 92.32,-146.539 201.64,-113.211 36.46,11.113 72.03,26.011 106.62,42.14 19.9,9.282 53.5,18.411 44.54,45.141 -9.99,29.762 -39.47,9.43 -60.85,5.539 -6.55,-1.187 -13.06,-2.648 -19.52,-4.277 -79.8,-20.121 -115,1.277 -134.59,80.258 -9.26,37.33 -2.51,64.81 30.13,90.99" /><path
             id="path38"
             style="fill:#ffffff;fill-opacity:1;fill-rule:nonzero;stroke:none"
             d="m 2509.37,1017.06 c -48.19,49.06 -111.54,69.81 -145.48,124.5 -68.59,129.4 -175.24,376.29 -165.99,695.74 5.32,183.97 47.47,335.91 88.23,444.19 -75.59,14.13 -169.67,25.78 -277.94,25.96 -108.27,-0.18 -202.35,-11.83 -277.94,-25.96 40.76,-108.28 82.91,-260.22 88.23,-444.19 9.25,-319.45 -97.4,-566.34 -165.99,-695.74 -33.94,-54.69 -97.3,-75.44 -145.48,-124.5 -53.12,-54.099 -63.24,-119.72 -80.29,-161.951 176.55,0.743 404.92,1.532 581.47,2.243 176.55,-0.711 404.92,-1.5 581.47,-2.243 -17.06,42.231 -27.17,107.852 -80.29,161.951" /></g></g></g></g></svg>